PathFileType	4	(X/Y/Z)	Patient4_TMGait_0pt3_01_left_29.trc.trc
DataRate	CameraRate	NumFrames	NumMarkers	Units	OrigDataRate	OrigDataStartFrame	OrigNumFrames
50.000000000000	50.000000000000	4	33	mm	50.000000000000	1	       141
Frame#	Time	Sacral			L.Shoulder			Chest			R.Shoulder			Neck			R.ASIS			L.ASIS			R.Thigh.Superior			R.Thigh.Lateral			R.Thigh.Inferior			R.Patella			L.Thigh.Superior			L.Thigh.Lateral			L.Thigh.Inferior			L.Patella			L.Shank.Superior			L.Shank.Lateral			L.Shank.Inferior			R.Shank.Superior			R.Shank.Lateral			R.Shank.Inferior			R.Heel			R.Midfoot.Superior			R.Midfoot.Lateral			R.Toe			L.Heel			L.Midfoot.Lateral			L.Midfoot.Superior			L.Toe			L.Elbow			L.Wrist			R.Elbow			R.Wrist			
		X1	Y1	Z1	X2	Y2	Z2	X3	Y3	Z3	X4	Y4	Z4	X5	Y5	Z5	X6	Y6	Z6	X7	Y7	Z7	X8	Y8	Z8	X9	Y9	Z9	X10	Y10	Z10	X11	Y11	Z11	X12	Y12	Z12	X13	Y13	Z13	X14	Y14	Z14	X15	Y15	Z15	X16	Y16	Z16	X17	Y17	Z17	X18	Y18	Z18	X19	Y19	Z19	X20	Y20	Z20	X21	Y21	Z21	X22	Y22	Z22	X23	Y23	Z23	X24	Y24	Z24	X25	Y25	Z25	X26	Y26	Z26	X27	Y27	Z27	X28	Y28	Z28	X29	Y29	Z29	X30	Y30	Z30	X31	Y31	Z31	X32	Y32	Z32	X33	Y33	Z33	

1	54.730000000000	719.611981785138	1001.011692408547	535.942502202556	914.155084810536	1428.290068178373	357.600044670329	1003.690815126043	1359.008709195931	526.162603656495	909.130321658862	1433.703479584767	693.483711949886	888.071608199622	1492.097344554945	514.286981443615	947.083758614105	940.101166688358	661.804742150539	943.481473992102	958.006423082689	386.195871955760	992.265762807731	738.345224782207	627.105705539578	906.983422965603	624.877194568142	676.495081377842	986.943847822275	575.976579306667	597.371172477887	987.100285652422	484.042344485146	599.802304308429	1003.819707385313	751.390217055880	420.317254773558	939.643010794724	628.913259004263	345.751364635134	1027.758558302418	552.470782947305	416.548605949101	1024.460324292949	462.695117677493	409.518339060129	950.058802300728	407.915343324044	393.804789282327	808.134678747692	385.156359650147	335.051352493155	776.880797776811	255.642769637685	381.454221460413	949.196467212582	396.965551044686	600.637925527782	867.624207534736	297.546285664348	655.770536349579	901.367756163956	202.413601566600	589.744339687759	753.826665378973	44.302297445255	554.127883333279	925.677762904241	97.203054560562	594.690856794191	835.156064567591	37.756086546753	630.514492099220	1043.606356228081	40.777274486692	626.017139758115	579.492115548113	217.648799130138	406.975296431618	633.020164919325	166.820779748408	326.783017833470	737.094546555162	155.209002935396	352.664587717761	796.048892139180	32.832637308695	321.120863956791	938.347696753372	1072.829527073869	247.420464763092	1104.409341669669	868.942125264529	250.548697885406	853.673261181206	1088.286543430154	815.897906437690	922.002653139900	835.590010944599	843.520519494850	
2	54.750000000000	718.810880289958	998.257305835938	540.247205304316	910.211104414456	1425.094832409325	358.010180096927	1002.418801445839	1356.685556304177	525.390878814961	910.421488262437	1431.678054699020	693.970531023035	886.755799982253	1489.616151820761	514.802307891358	948.324133944098	937.915961206909	662.896433788541	940.233414800524	955.920494337091	387.794580298030	994.443639584881	736.498139243125	626.893063818329	910.779902417098	622.105269764211	676.415327228330	990.150416762821	574.051670536737	596.190166202929	990.489023172422	481.152675132716	598.192639456318	1005.894080417747	753.069349913187	423.347293769017	945.924022202470	629.246353925740	349.186141509360	1035.379967491503	555.303058051565	420.961650080591	1034.475099793227	465.065967010469	413.423005771126	960.633355298503	409.012230824146	397.211325997045	818.306816052131	385.008354895000	339.544675573123	789.232287021309	254.604921262486	384.989242713157	950.535816108784	394.298130852747	599.405755588564	867.547886167630	296.451707632253	655.370104366325	898.283315198126	200.943120589452	588.993775564140	747.749079616037	44.514249188201	554.184014968124	919.711659524538	97.056792279246	594.485566630050	829.096920905601	37.765437501017	630.539388220230	1037.581734659736	40.584071395289	626.071986040583	592.272487974670	212.389581672885	412.035299831274	646.215031502557	164.216152368073	330.579662494393	750.774604769964	154.918999348465	355.441609408822	812.400451328719	34.627735218168	321.339044991635	926.724985956163	1068.110000357076	251.479457215054	1072.807862708243	853.535009142462	253.934861961267	866.304261988586	1085.308766798083	818.102315690318	949.721997997002	838.319695211547	843.446831882682	
3	54.770000000000	718.039828408041	995.444188673271	544.594158872915	906.123028861025	1421.829737002649	358.393425306333	1001.100176228026	1354.314390553067	524.526576518004	911.781523417393	1429.639474870500	694.399392715366	885.412455866169	1487.097805268960	515.274100227352	949.559827877735	935.685922692841	663.931102364952	936.910347066969	953.776598771579	389.339810262245	996.490483890898	734.578883770010	626.630166723337	914.425905155885	619.307390563217	676.317209576361	993.172307918578	572.063795158917	594.979865193437	993.670295959385	478.217579447614	596.554159617628	1007.914679396164	754.790797458333	426.232812617330	952.097264846518	629.622195905922	352.481911431273	1042.949635551821	558.209420992207	425.123944572429	1044.486312399812	467.581751424617	417.099534791499	971.392700321090	410.139162292978	400.444303490533	828.753778722043	384.373366793830	343.903670210757	802.323664648071	253.047409451187	388.453904246526	951.667138221982	391.594584753203	598.155599968836	867.284713754272	295.324781552791	654.958087209659	895.016650063423	199.447498408253	588.239304243528	741.491740884297	44.712188602026	554.229847572665	913.551079320537	96.894473938785	594.265489083594	822.866133985901	37.770762690555	630.570657914304	1031.381123687482	40.389875352484	626.125267860653	606.041915091003	205.930838720817	417.044528704011	660.497047686212	160.572395910064	334.355431274807	765.504796519205	154.007899576996	358.216204178541	830.200968600513	36.095182533602	321.615075496428	914.400178176525	1063.415873328685	255.451885573940	1040.308378147048	838.566767394438	257.417219548235	879.389915089775	1082.429448942149	820.239591752712	978.606056508228	841.889266978198	842.883324058767	
4	54.790000000000	717.335024799758	992.690303588817	548.849972473156	901.968287876533	1418.621307079543	358.720163696665	999.764646807676	1351.995912841051	523.545110300141	913.208321527737	1427.693980580082	694.715903176106	884.078046702178	1484.650992194143	515.659433074632	950.739255850590	933.495537159587	664.834471433792	933.588328517549	951.661653062117	390.749907419648	998.256511851058	732.643370147258	626.300125867216	917.691811967790	616.596698781132	676.203205669950	995.778803333515	570.073252321059	593.772705856442	996.386862218710	475.342112855139	594.937801296996	1009.759940645563	756.524767552775	428.800464978820	957.852624796395	630.067944391241	355.443945716441	1050.118040047996	561.126205919554	428.761523585738	1054.086329977448	470.243426902919	420.302863917707	982.013021756395	411.301118417766	403.292384084585	839.265271626963	383.054859865639	347.876017179087	816.102252010286	250.818484501443	391.653301681897	952.413413836757	388.958743353669	596.930377934867	866.718521890838	294.209373721342	654.549070356557	891.567223848296	197.987250531781	587.510658331072	735.171409685208	44.897405909349	554.269163780584	907.305512344557	96.720179039102	594.038115658456	816.580184118310	37.777263740722	630.611667453619	1025.116413169391	40.198125436114	626.175080888674	620.906494267237	197.955233189913	421.749222796282	676.005295521939	155.569257249201	337.918081132106	781.361103359382	152.264458206958	360.846271433939	849.602011602465	37.114624334369	321.932702004174	901.447329295958	1058.998586637142	259.170204152355	1007.599655100822	824.815291936898	260.924072161404	892.726806024448	1079.850828945307	822.174245227311	1008.203446202069	846.746873270855	841.564661364918	
